<svg width="40" height="40" viewBox="0 0 40 40" fill="none" xmlns="http://www.w3.org/2000/svg">
<rect width="40" height="40" rx="14" fill="#265FFF"/>
<path d="M32.3041 18.7847V26.2407H8.89607C8.35476 25.4102 7.98485 24.48 7.80807 23.5047C7.7297 23.0772 7.6922 22.6432 7.69607 22.2087C7.69588 21.7356 7.74413 21.2638 7.84007 20.8007C8.16391 19.1117 9.06646 17.5886 10.3923 16.4934C11.7182 15.3983 13.3844 14.7997 15.1041 14.8007C15.4901 14.8008 15.8754 14.8329 16.2561 14.8967V17.7767C15.8812 17.6688 15.494 17.6096 15.1041 17.6007C14.1315 17.6048 13.1851 17.9166 12.4005 18.4914C11.6159 19.0662 11.0333 19.8745 10.7361 20.8007C10.5879 21.2608 10.5124 21.7412 10.5121 22.2247C10.5187 22.6632 10.5832 23.099 10.7041 23.5207H29.4721V18.7847C29.4721 17.571 28.99 16.4071 28.1318 15.5489C27.2736 14.6908 26.1097 14.2087 24.8961 14.2087H21.9201V20.8007H19.0881V11.3927H24.8961C26.5598 11.385 28.1756 11.9499 29.4721 12.9927C29.9381 13.3493 30.3574 13.7632 30.7201 14.2247C31.7446 15.524 32.3025 17.13 32.3041 18.7847Z" fill="white"/>
</svg>